<?xml version="1.0" encoding="UTF-8" standalone="no"?>
<!DOCTYPE svg PUBLIC "-//W3C//DTD SVG 1.1//EN" "http://www.w3.org/Graphics/SVG/1.1/DTD/svg11.dtd">
<svg xmlns="http://www.w3.org/2000/svg" version="1.1" viewBox="0.00 0.00 500.00 500.00">
<g stroke-width="2.00" fill="none" stroke-linecap="butt">
<path stroke="#9cdbff" vector-effect="non-scaling-stroke" d="
  M 100.9256 207.1640
  A 5.07 5.07 0.0 0 0 100.9256 199.9940
  L 75.6960 174.7644
  A 5.07 5.07 0.0 0 0 68.5260 174.7644
  L 35.3344 207.9560
  A 5.07 5.07 0.0 0 0 35.3344 215.1260
  L 60.5640 240.3556
  A 5.07 5.07 0.0 0 0 67.7340 240.3556
  L 100.9256 207.1640"
/>
<path stroke="#9cdbff" vector-effect="non-scaling-stroke" d="
  M 192.78 243.80
  A 0.32 0.32 0.0 0 1 193.37 243.80
  L 206.92 276.96
  A 0.32 0.32 0.0 0 0 207.21 277.16
  L 232.40 277.16
  A 0.32 0.32 0.0 0 0 232.69 276.70
  L 213.12 236.08
  A 0.32 0.32 0.0 0 1 213.12 235.80
  L 231.43 197.25
  A 0.32 0.32 0.0 0 0 231.14 196.79
  L 206.65 196.79
  A 0.32 0.32 0.0 0 0 206.36 196.99
  L 193.38 227.67
  A 0.32 0.32 0.0 0 1 192.79 227.67
  L 180.22 197.00
  A 0.32 0.32 0.0 0 0 179.93 196.80
  L 154.75 196.78
  A 0.32 0.32 0.0 0 0 154.46 197.24
  L 173.04 235.80
  A 0.32 0.32 0.0 0 1 173.04 236.08
  L 152.94 276.69
  A 0.32 0.32 0.0 0 0 153.23 277.15
  L 178.52 277.17
  A 0.32 0.32 0.0 0 0 178.81 276.97
  L 192.78 243.80"
/>
<path stroke="#9cdbff" vector-effect="non-scaling-stroke" d="
  M 265.00 197.18
  A 0.39 0.39 0.0 0 0 264.61 196.79
  L 240.07 196.79
  A 0.39 0.39 0.0 0 0 239.68 197.18
  L 239.68 276.60
  A 0.39 0.39 0.0 0 0 240.07 276.99
  L 264.61 276.99
  A 0.39 0.39 0.0 0 0 265.00 276.60
  L 265.00 197.18"
/>
<path stroke="#9cdbff" vector-effect="non-scaling-stroke" d="
  M 325.41 259.47
  A 0.37 0.37 0.0 0 1 325.77 259.75
  L 329.82 276.72
  A 0.37 0.37 0.0 0 0 330.18 277.00
  L 355.44 277.00
  A 0.37 0.37 0.0 0 0 355.79 276.52
  L 331.24 197.05
  A 0.37 0.37 0.0 0 0 330.89 196.79
  L 298.41 196.79
  A 0.37 0.37 0.0 0 0 298.06 197.05
  L 272.41 276.52
  A 0.37 0.37 0.0 0 0 272.76 277.00
  L 297.83 277.00
  A 0.37 0.37 0.0 0 0 298.19 276.72
  L 302.27 259.73
  A 0.37 0.37 0.0 0 1 302.63 259.45
  L 325.41 259.47"
/>
<path stroke="#9cdbff" vector-effect="non-scaling-stroke" d="
  M 387.24 214.72
  Q 387.36 211.01 388.27 214.61
  Q 389.91 221.17 391.17 227.01
  Q 396.47 251.77 401.39 276.46
  Q 401.50 277.00 402.05 277.00
  L 424.81 277.00
  Q 425.17 277.00 425.25 276.64
  Q 431.67 248.03 437.19 222.26
  Q 438.07 218.15 439.14 214.07
  Q 439.73 211.80 439.99 214.13
  Q 440.32 217.07 440.44 220.04
  Q 441.63 249.57 442.75 276.47
  Q 442.78 277.00 443.30 277.00
  L 466.02 277.00
  A 0.37 0.37 0.0 0 0 466.39 276.62
  L 463.18 197.02
  A 0.24 0.23 88.7 0 0 462.95 196.79
  L 422.71 196.79
  A 0.79 0.79 0.0 0 0 421.93 197.44
  Q 418.09 218.64 413.88 239.47
  Q 413.63 240.73 413.38 239.47
  L 405.02 197.13
  A 0.43 0.42 84.1 0 0 404.61 196.79
  L 365.34 196.79
  Q 364.72 196.79 364.69 197.41
  L 361.36 276.42
  Q 361.34 277.00 361.92 277.00
  L 384.55 277.00
  Q 385.09 277.00 385.11 276.45
  L 387.24 214.72"
/>
<path stroke="#bfecab" vector-effect="non-scaling-stroke" d="
  M 129.5668 235.9566
  A 5.16 5.16 0.0 0 0 129.5668 228.6593
  L 112.4407 211.5332
  A 5.16 5.16 0.0 0 0 105.1434 211.5332
  L 72.0932 244.5834
  A 5.16 5.16 0.0 0 0 72.0932 251.8807
  L 89.2193 269.0068
  A 5.16 5.16 0.0 0 0 96.5166 269.0068
  L 129.5668 235.9566"
/>
<path stroke="#ffabab" vector-effect="non-scaling-stroke" d="
  M 28.5275 218.1072
  A 5.54 5.54 0.0 0 0 20.6928 218.1072
  L 4.2172 234.5828
  A 5.54 5.54 0.0 0 0 4.2172 242.4175
  L 61.2525 299.4528
  A 5.54 5.54 0.0 0 0 69.0872 299.4528
  L 85.5628 282.9772
  A 5.54 5.54 0.0 0 0 85.5628 275.1425
  L 28.5275 218.1072"
/>
<path stroke="#9cdbff" vector-effect="non-scaling-stroke" d="
  M 305.73 243.28
  A 0.36 0.36 0.0 0 0 306.08 243.74
  L 321.86 243.82
  A 0.36 0.36 0.0 0 0 322.20 243.36
  L 314.47 214.40
  A 0.36 0.36 0.0 0 0 313.77 214.40
  L 305.73 243.28"
/>
</g>
<path fill="#ffffff" d="
  M 0.00 0.00
  L 500.00 0.00
  L 500.00 500.00
  L 0.00 500.00
  L 0.00 0.00
  Z
  M 100.9256 207.1640
  A 5.07 5.07 0.0 0 0 100.9256 199.9940
  L 75.6960 174.7644
  A 5.07 5.07 0.0 0 0 68.5260 174.7644
  L 35.3344 207.9560
  A 5.07 5.07 0.0 0 0 35.3344 215.1260
  L 60.5640 240.3556
  A 5.07 5.07 0.0 0 0 67.7340 240.3556
  L 100.9256 207.1640
  Z
  M 192.78 243.80
  A 0.32 0.32 0.0 0 1 193.37 243.80
  L 206.92 276.96
  A 0.32 0.32 0.0 0 0 207.21 277.16
  L 232.40 277.16
  A 0.32 0.32 0.0 0 0 232.69 276.70
  L 213.12 236.08
  A 0.32 0.32 0.0 0 1 213.12 235.80
  L 231.43 197.25
  A 0.32 0.32 0.0 0 0 231.14 196.79
  L 206.65 196.79
  A 0.32 0.32 0.0 0 0 206.36 196.99
  L 193.38 227.67
  A 0.32 0.32 0.0 0 1 192.79 227.67
  L 180.22 197.00
  A 0.32 0.32 0.0 0 0 179.93 196.80
  L 154.75 196.78
  A 0.32 0.32 0.0 0 0 154.46 197.24
  L 173.04 235.80
  A 0.32 0.32 0.0 0 1 173.04 236.08
  L 152.94 276.69
  A 0.32 0.32 0.0 0 0 153.23 277.15
  L 178.52 277.17
  A 0.32 0.32 0.0 0 0 178.81 276.97
  L 192.78 243.80
  Z
  M 265.00 197.18
  A 0.39 0.39 0.0 0 0 264.61 196.79
  L 240.07 196.79
  A 0.39 0.39 0.0 0 0 239.68 197.18
  L 239.68 276.60
  A 0.39 0.39 0.0 0 0 240.07 276.99
  L 264.61 276.99
  A 0.39 0.39 0.0 0 0 265.00 276.60
  L 265.00 197.18
  Z
  M 325.41 259.47
  A 0.37 0.37 0.0 0 1 325.77 259.75
  L 329.82 276.72
  A 0.37 0.37 0.0 0 0 330.18 277.00
  L 355.44 277.00
  A 0.37 0.37 0.0 0 0 355.79 276.52
  L 331.24 197.05
  A 0.37 0.37 0.0 0 0 330.89 196.79
  L 298.41 196.79
  A 0.37 0.37 0.0 0 0 298.06 197.05
  L 272.41 276.52
  A 0.37 0.37 0.0 0 0 272.76 277.00
  L 297.83 277.00
  A 0.37 0.37 0.0 0 0 298.19 276.72
  L 302.27 259.73
  A 0.37 0.37 0.0 0 1 302.63 259.45
  L 325.41 259.47
  Z
  M 387.24 214.72
  Q 387.36 211.01 388.27 214.61
  Q 389.91 221.17 391.17 227.01
  Q 396.47 251.77 401.39 276.46
  Q 401.50 277.00 402.05 277.00
  L 424.81 277.00
  Q 425.17 277.00 425.25 276.64
  Q 431.67 248.03 437.19 222.26
  Q 438.07 218.15 439.14 214.07
  Q 439.73 211.80 439.99 214.13
  Q 440.32 217.07 440.44 220.04
  Q 441.63 249.57 442.75 276.47
  Q 442.78 277.00 443.30 277.00
  L 466.02 277.00
  A 0.37 0.37 0.0 0 0 466.39 276.62
  L 463.18 197.02
  A 0.24 0.23 88.7 0 0 462.95 196.79
  L 422.71 196.79
  A 0.79 0.79 0.0 0 0 421.93 197.44
  Q 418.09 218.64 413.88 239.47
  Q 413.63 240.73 413.38 239.47
  L 405.02 197.13
  A 0.43 0.42 84.1 0 0 404.61 196.79
  L 365.34 196.79
  Q 364.72 196.79 364.69 197.41
  L 361.36 276.42
  Q 361.34 277.00 361.92 277.00
  L 384.55 277.00
  Q 385.09 277.00 385.11 276.45
  L 387.24 214.72
  Z
  M 129.5668 235.9566
  A 5.16 5.16 0.0 0 0 129.5668 228.6593
  L 112.4407 211.5332
  A 5.16 5.16 0.0 0 0 105.1434 211.5332
  L 72.0932 244.5834
  A 5.16 5.16 0.0 0 0 72.0932 251.8807
  L 89.2193 269.0068
  A 5.16 5.16 0.0 0 0 96.5166 269.0068
  L 129.5668 235.9566
  Z
  M 28.5275 218.1072
  A 5.54 5.54 0.0 0 0 20.6928 218.1072
  L 4.2172 234.5828
  A 5.54 5.54 0.0 0 0 4.2172 242.4175
  L 61.2525 299.4528
  A 5.54 5.54 0.0 0 0 69.0872 299.4528
  L 85.5628 282.9772
  A 5.54 5.54 0.0 0 0 85.5628 275.1425
  L 28.5275 218.1072
  Z"
/>
<rect fill="#38b6ff" x="-22.91" y="-28.54" transform="translate(68.13,207.56) rotate(45.0)" width="45.82" height="57.08" rx="5.07"/>
<path fill="#38b6ff" d="
  M 192.78 243.80
  L 178.81 276.97
  A 0.32 0.32 0.0 0 1 178.52 277.17
  L 153.23 277.15
  A 0.32 0.32 0.0 0 1 152.94 276.69
  L 173.04 236.08
  A 0.32 0.32 0.0 0 0 173.04 235.80
  L 154.46 197.24
  A 0.32 0.32 0.0 0 1 154.75 196.78
  L 179.93 196.80
  A 0.32 0.32 0.0 0 1 180.22 197.00
  L 192.79 227.67
  A 0.32 0.32 0.0 0 0 193.38 227.67
  L 206.36 196.99
  A 0.32 0.32 0.0 0 1 206.65 196.79
  L 231.14 196.79
  A 0.32 0.32 0.0 0 1 231.43 197.25
  L 213.12 235.80
  A 0.32 0.32 0.0 0 0 213.12 236.08
  L 232.69 276.70
  A 0.32 0.32 0.0 0 1 232.40 277.16
  L 207.21 277.16
  A 0.32 0.32 0.0 0 1 206.92 276.96
  L 193.37 243.80
  A 0.32 0.32 0.0 0 0 192.78 243.80
  Z"
/>
<rect fill="#38b6ff" x="239.68" y="196.79" width="25.32" height="80.20" rx="0.39"/>
<path fill="#38b6ff" d="
  M 325.41 259.47
  L 302.63 259.45
  A 0.37 0.37 0.0 0 0 302.27 259.73
  L 298.19 276.72
  A 0.37 0.37 0.0 0 1 297.83 277.00
  L 272.76 277.00
  A 0.37 0.37 0.0 0 1 272.41 276.52
  L 298.06 197.05
  A 0.37 0.37 0.0 0 1 298.41 196.79
  L 330.89 196.79
  A 0.37 0.37 0.0 0 1 331.24 197.05
  L 355.79 276.52
  A 0.37 0.37 0.0 0 1 355.44 277.00
  L 330.18 277.00
  A 0.37 0.37 0.0 0 1 329.82 276.72
  L 325.77 259.75
  A 0.37 0.37 0.0 0 0 325.41 259.47
  Z
  M 305.73 243.28
  A 0.36 0.36 0.0 0 0 306.08 243.74
  L 321.86 243.82
  A 0.36 0.36 0.0 0 0 322.20 243.36
  L 314.47 214.40
  A 0.36 0.36 0.0 0 0 313.77 214.40
  L 305.73 243.28
  Z"
/>
<path fill="#38b6ff" d="
  M 387.24 214.72
  L 385.11 276.45
  Q 385.09 277.00 384.55 277.00
  L 361.92 277.00
  Q 361.34 277.00 361.36 276.42
  L 364.69 197.41
  Q 364.72 196.79 365.34 196.79
  L 404.61 196.79
  A 0.43 0.42 84.1 0 1 405.02 197.13
  L 413.38 239.47
  Q 413.63 240.73 413.88 239.47
  Q 418.09 218.64 421.93 197.44
  A 0.79 0.79 0.0 0 1 422.71 196.79
  L 462.95 196.79
  A 0.24 0.23 88.7 0 1 463.18 197.02
  L 466.39 276.62
  A 0.37 0.37 0.0 0 1 466.02 277.00
  L 443.30 277.00
  Q 442.78 277.00 442.75 276.47
  Q 441.63 249.57 440.44 220.04
  Q 440.32 217.07 439.99 214.13
  Q 439.73 211.80 439.14 214.07
  Q 438.07 218.15 437.19 222.26
  Q 431.67 248.03 425.25 276.64
  Q 425.17 277.00 424.81 277.00
  L 402.05 277.00
  Q 401.50 277.00 401.39 276.46
  Q 396.47 251.77 391.17 227.01
  Q 389.91 221.17 388.27 214.61
  Q 387.36 211.01 387.24 214.72
  Z"
/>
<rect fill="#7ed957" x="-17.27" y="-28.53" transform="translate(100.83,240.27) rotate(45.0)" width="34.54" height="57.06" rx="5.16"/>
<path fill="#ffffff" d="
  M 305.73 243.28
  L 313.77 214.40
  A 0.36 0.36 0.0 0 1 314.47 214.40
  L 322.20 243.36
  A 0.36 0.36 0.0 0 1 321.86 243.82
  L 306.08 243.74
  A 0.36 0.36 0.0 0 1 305.73 243.28
  Z"
/>
<rect fill="#ff5757" x="-17.19" y="-45.87" transform="translate(44.89,258.78) rotate(-45.0)" width="34.38" height="91.74" rx="5.54"/>
</svg>
